<?xml version="1.0" encoding="utf-8"?>
<!-- Generator: Adobe Illustrator 26.1.0, SVG Export Plug-In . SVG Version: 6.00 Build 0)  -->
<svg version="1.1" id="Capa_1" xmlns="http://www.w3.org/2000/svg" xmlns:xlink="http://www.w3.org/1999/xlink" x="0px" y="0px"
	 viewBox="0 0 1068.4 1080" style="enable-background:new 0 0 1068.4 1080;" xml:space="preserve">
<style type="text/css">
	.st0{fill:#A389BF;}
</style>
<path class="st0" d="M950.5,367.8c-0.1-0.4-0.1-0.7-0.2-1.1c-0.2-1-0.4-1.9-0.5-2.9c-0.3-1.6-0.6-3.1-0.9-4.6c0-0.1,0-0.2-0.1-0.3
	c-10.4-50.8-35.3-99.2-74.7-138.6c-64.6-64.6-153.5-90.3-237.3-77c14.8,0.1,29.1,3.8,41.9,10.3c-12.8-6.5-27.1-10.2-41.9-10.3
	c-24.7,3.9-48.9,11.2-72,21.8c0,0-0.1,0-0.1,0c-1.9,0.9-3.7,1.7-5.5,2.6c0,0-0.1,0-0.1,0c24.8-12.1,51-20.3,77.7-24.6
	c-7.2-0.1-14.6,0.7-21.9,2.4l-160.7,37.4c0,0,0,0,0,0l-143.6,33.4c-50.3,11.7-81.6,62-69.9,112.2h0c11.7,50.3,61.9,81.6,112.2,69.8
	l7.5-1.7l-44.1,46.5c-1.8,1.6-3.6,3.3-5.3,5.1L134.9,634.5c-29.1,30.7-27.8,79.2,2.9,108.3c30.7,29.1,79.2,27.8,108.3-2.9l71.9-75.9
	c1.8-1.6,3.6-3.3,5.3-5.1l112.4-118.7c1.6,3.1,3.3,6.2,5,9.3l-45.5,48c-1.8,1.6-3.6,3.3-5.3,5.1L213.8,788.4
	c-29.1,30.7-27.8,79.2,2.9,108.3c30.7,29.1,79.2,27.8,108.3-2.9l71.9-75.9c1.8-1.6,3.6-3.3,5.3-5.1l148-156.2c3,1.6,6.1,3.2,9.2,4.7
	l-12.3,13c-1.8,1.6-3.6,3.3-5.3,5.1L365.7,865.3c-29.1,30.7-27.8,79.2,2.9,108.3c30.7,29.1,79.2,27.8,108.3-2.9l71.9-75.9
	c1.8-1.6,3.6-3.3,5.3-5.1l169.5-178.9l-17.8,77.9c-9.8,44.3,18.3,88.2,62.6,98c44.3,9.8,88.2-18.3,98-62.6l73.4-321.1
	c6.1-17.9,10.4-36.5,12.7-55.4l0.6-2.8c1.2-5.5,1.4-9.3,0.8-11.7C955.4,411.5,954.3,389.6,950.5,367.8z M557.8,168.5
	c-1.3,0.7-2.7,1.4-4,2c0,0-0.1,0-0.1,0.1C555,169.9,556.4,169.2,557.8,168.5C557.8,168.5,557.8,168.5,557.8,168.5z"/>
</svg>
