<?xml version="1.0" encoding="utf-8"?>
<!-- Generator: Adobe Illustrator 26.1.0, SVG Export Plug-In . SVG Version: 6.00 Build 0)  -->
<svg version="1.1" id="Capa_1" xmlns="http://www.w3.org/2000/svg" xmlns:xlink="http://www.w3.org/1999/xlink" x="0px" y="0px"
	 viewBox="0 0 150 178.2" style="enable-background:new 0 0 150 178.2;" xml:space="preserve">
<style type="text/css">
	.st0{fill:#F7E649;}
	.st1{fill:#FFFFFF;}
</style>
<g>
	<path class="st0" d="M83.2,10.8L83.2,10.8c34.4,3.6,59.4,33.1,56,65.8l-4,38.1c-3.4,32.7-34.1,56.3-68.4,52.7
		c-34.4-3.6-59.4-33.1-56-65.8l4-38.1C18.2,30.8,48.9,7.2,83.2,10.8"/>
	<path class="st1" d="M69.4,139.8c-5-0.5-8.6-4.9-8.1-9.7c0.5-4.8,5-8.3,9.9-7.8c5,0.5,8.6,4.9,8.1,9.7
		C78.8,136.8,74.3,140.3,69.4,139.8"/>
	<path class="st1" d="M71.4,120.3c-6-0.6-11.5,3.6-12.1,9.5c-0.6,5.9,3.8,11.2,9.8,11.8c6,0.6,11.5-3.6,12.1-9.5
		C81.9,126.3,77.4,120.9,71.4,120.3 M71,124.1c3.9,0.4,6.7,3.8,6.3,7.6c-0.4,3.8-3.9,6.5-7.8,6.1c-3.9-0.4-6.7-3.8-6.3-7.6
		C63.6,126.5,67.1,123.7,71,124.1"/>
	<path class="st1" d="M72.1,113.4c-3.9-0.4-6.8-3.9-6.4-7.7l2.4-22.9c0.4-3.8,3.9-6.6,7.8-6.2c3.8,0.4,7.5-0.7,10.4-3.1
		c2.9-2.4,4.6-5.8,4.8-9.5c0.4-6.8-4.7-13-11.7-14.1C79.2,50,79,50,78.8,50c-6.4-0.7-12.4,3-14.4,8.9c-1,2.8-3.8,4.6-6.9,4.3
		c-2.2-0.2-4-1.3-5.2-3.1c-1.1-1.7-1.3-3.7-0.7-5.6c4.1-11.7,15.9-18.9,28.5-17.6c1.1,0.1,2.2,0.3,3.3,0.5
		c12.2,2.7,21.2,13.6,21.2,25.8c0.1,12.6-9,23.6-21.6,26.1c-0.7,0.2-1.3,0.8-1.4,1.6L80,107.3C79.6,111.1,76.1,113.9,72.1,113.4"/>
	<path class="st1" d="M80.4,35c-13.6-1.4-26.2,6.3-30.6,18.9c-0.9,2.4-0.5,5.1,0.9,7.3c1.4,2.2,3.8,3.7,6.5,3.9l0.1,0
		c4,0.4,7.7-1.9,9-5.6c1.8-5.1,6.9-8.2,12.4-7.6c0.2,0,0.4,0,0.6,0.1c6,0.9,10.4,6.2,10,12.1c-0.2,3.2-1.7,6.1-4.1,8.1
		c-2.5,2.1-5.6,3-8.9,2.7c-5-0.5-9.5,3-10,7.9l-0.4,3.7l-2,19.2c-0.5,4.9,3.1,9.3,8.2,9.8c5,0.5,9.5-3,10-7.9l1.7-16.2
		c13.4-2.8,23.1-14.5,23-28c-0.1-13.1-9.7-24.7-22.8-27.6C82.7,35.3,81.5,35.1,80.4,35 M80,38.8c1,0.1,2,0.3,3,0.5
		c11.3,2.5,19.6,12.6,19.7,23.9c0.1,12.2-8.7,22-20,24.3c-1.6,0.3-2.8,1.7-3,3.3c-0.4,4-1.2,11.4-1.7,16.3c-0.3,2.8-2.8,4.8-5.7,4.5
		c-2.9-0.3-4.9-2.8-4.6-5.6l2-19.2l0.4-3.7c0.3-2.8,2.8-4.7,5.6-4.4l0,0c8.9,0.9,16.8-5.6,17.3-14.4c0.5-7.8-5.4-14.9-13.4-16.1
		c-0.3,0-0.5-0.1-0.8-0.1c-7.4-0.8-14.2,3.6-16.5,10.2c-0.7,2-2.7,3.2-4.8,3c-0.1,0-0.1,0-0.1,0c-3-0.3-5.1-3.3-4.1-6.1
		C57.2,44.6,68.1,37.6,80,38.8"/>
</g>
</svg>
