<?xml version="1.0" encoding="utf-8"?>
<!-- Generator: Adobe Illustrator 26.1.0, SVG Export Plug-In . SVG Version: 6.00 Build 0)  -->
<svg version="1.1" id="Capa_1" xmlns="http://www.w3.org/2000/svg" xmlns:xlink="http://www.w3.org/1999/xlink" x="0px" y="0px"
	 viewBox="0 0 150 178.2" style="enable-background:new 0 0 150 178.2;" xml:space="preserve">
<style type="text/css">
	.st0{fill:#FFFFFF;}
	.st1{fill:#F7E649;}
</style>
<g>
	<path class="st0" d="M97.4,155.4c-4,0.9-8.3-0.4-11.1-3.4l-0.7-0.8l-0.9-0.6c-33.1-21.2-60.9-66.1-66.1-74.8l-0.1-0.2l-0.1-0.2
		c-0.3-0.4-0.5-0.8-0.7-1.2c-0.4-0.8-0.7-1.7-0.9-2.6c-1.4-6.2,2.5-12.3,8.7-13.8c0.2,0,0.4-0.1,0.6-0.1l0.3-0.1l0.3-0.1
		c3.1-0.8,9.4-3.2,17.4-10.4c8.9-8,13.6-15.4,14.5-17.3l0.1-0.2l0.1-0.2c1.5-3.4,4.4-5.9,8-6.7c3.6-0.8,7.3,0.1,10.2,2.5L76.7,25
		c2.7,2.4,10.9,6.8,21.3,9.8c10.3,3,17.1,2.4,20.2,1.7l0.3-0.1l0.3-0.1c0.2-0.1,0.4-0.1,0.6-0.2c6.2-1.4,12.4,2.4,13.8,8.6
		c0.2,0.9,0.3,1.8,0.3,2.7c0,0.5,0,0.9-0.1,1.4l0,0.2l0,0.2c-0.9,10.2-6.2,62.7-26.6,96.2l-0.5,0.9l-0.3,1
		C104.7,151.4,101.4,154.4,97.4,155.4"/>
	<path class="st1" d="M65,14.8c-6.4,1.5-11.4,5.9-13.8,11.5c0,0-3.6,6.6-12.6,14.8c-6.8,6.1-11.8,8-13.9,8.5
		c-0.4,0.1-0.7,0.1-1.1,0.2C12.9,52.3,6.2,62.9,8.7,73.5c0.4,1.6,0.9,3.1,1.6,4.4c0.4,0.7,0.8,1.4,1.2,2.1
		c6.1,10.2,34.4,55.5,68.7,77.5c4.7,5,11.8,7.4,19,5.8c7.2-1.7,12.6-7,14.6-13.5c21.2-34.9,26.8-87.9,27.8-99.8
		c0.1-0.8,0.2-1.6,0.2-2.4c0-1.5-0.1-3.1-0.5-4.7c-2.4-10.6-13.1-17.2-23.8-14.7c-0.4,0.1-0.7,0.2-1.1,0.3c-2.1,0.4-7.4,1-16.2-1.6
		c-11.7-3.4-17.8-7.8-17.8-7.8C77.8,15.1,71.4,13.3,65,14.8 M68.7,30.9c1.4-0.3,2.5,0.4,2.8,0.7l0.4,0.3l0.4,0.3
		c0.3,0.2,8.1,6.1,23.3,10.5c11.4,3.3,19.5,2.9,24.2,1.9l0.7-0.1l0.6-0.2c0.1,0,0.2,0,0.2,0c1.7-0.4,3.5,0.7,3.9,2.4
		c0.1,0.3,0.1,0.5,0.1,0.8c0,0.1,0,0.3,0,0.4l-0.1,0.4l0,0.5c-0.5,5.7-2,21.1-6,39.2c-4.8,21.9-11.5,40.4-19.4,53.5l-1.1,1.8l-0.6,2
		c-0.1,0.4-0.7,1.8-2.4,2.2c-1.7,0.4-2.8-0.6-3.1-1l-1.4-1.5l-1.7-1.1c-12.9-8.2-27-21.9-40.9-39.5C36.9,89.7,28.8,76.6,25.8,71.6
		l-0.2-0.4l-0.3-0.4c-0.1-0.1-0.1-0.2-0.2-0.3C25,70.3,25,70,24.9,69.8c-0.4-1.7,0.7-3.4,2.4-3.8c0,0,0.1,0,0.2,0l0.7-0.1l0.7-0.2
		c4.7-1.2,12.1-4.3,20.9-12.3c10.6-9.6,15.2-17.6,16.1-19.2l0.4-0.7l0.3-0.7C66.6,32.3,67.3,31.2,68.7,30.9"/>
	<path class="st1" d="M87.6,89.4l-3.5-13.5c0-0.1-0.1-0.3-0.1-0.4L82.6,70c-0.6-2.2,0.8-4.5,3-5.1c2.2-0.6,4.5,0.8,5.1,3l3.5,13.5
		c0,0.1,0.1,0.3,0.1,0.4l1.4,5.5c0.6,2.2-0.8,4.5-3,5.1C90.4,93,88.2,91.6,87.6,89.4"/>
	<path class="st1" d="M78.1,88.6l-3.5-13.5c0-0.1-0.1-0.3-0.1-0.4l-1.4-5.5c-0.6-2.2,0.8-4.5,3-5.1c2.2-0.6,4.5,0.8,5.1,3l3.5,13.5
		c0,0.1,0.1,0.3,0.1,0.4l1.4,5.5c0.6,2.2-0.8,4.5-3,5.1C81,92.2,78.7,90.9,78.1,88.6"/>
	<path class="st1" d="M70.1,93.4l-3.5-13.5c0-0.1-0.1-0.3-0.1-0.4L65.1,74c-0.6-2.2,0.8-4.5,3-5.1c2.2-0.6,4.5,0.8,5.1,3l3.5,13.5
		c0,0.1,0.1,0.3,0.1,0.4l1.4,5.5c0.6,2.2-0.8,4.5-3,5.1C73,97,70.7,95.7,70.1,93.4"/>
	<path class="st1" d="M60.5,96.3l13.5,13.4c1.6,1.6,0.3-2.5,1.8-4.1l3.9,4c1.6-1.6,1.5-4.1,0-5.7L66.2,90.6
		c-1.6-1.5-4.2-1.5-5.7,0.1C58.9,92.2,59,94.8,60.5,96.3"/>
	<path class="st1" d="M99.9,102.1L99.9,102.1c1.5-8.1-4-15.9-12.1-17.4l0,0c-8.2-1.4-16,4-17.5,12.1c-1.5,8.1,4,15.9,12.1,17.4l0,0"
		/>
	<path class="st1" d="M101.8,81.6L101.8,81.6c-2.7-0.9-5.6,0.5-6.5,3.2l-2,5.7c3.4,0.6,6.7,2.4,9,5.2l2.6-7.6
		C105.9,85.4,104.5,82.5,101.8,81.6"/>
	<path class="st1" d="M93.3,90.4c-1-0.2-2-0.2-3-0.2l2.6,1.6L93.3,90.4z"/>
	<path class="st1" d="M93.3,90.4l-0.5,1.4l6.8,4.2l0,0c0.7,3.2,0.4,6.4-0.8,9.2c0.2-0.3,0.4-0.7,0.5-1.1l2.9-8.5
		C100,92.8,96.8,91,93.3,90.4"/>
	<path class="st1" d="M88.4,114c4.9-1.1,8.7-4.5,10.5-8.8c-1.2,1.9-3.7,2.9-6,2.1c-2.7-0.9-4.1-3.8-3.2-6.5l3.1-9.1l-2.6-1.6
		c-3.2,0.1-6.4,1.2-9.1,3.4l0,0c-5.8,4.7-7.2,12.6-3.7,18.8C80.7,114.2,84.5,114.9,88.4,114"/>
	<path class="st1" d="M92.9,107.4L92.9,107.4c2.3,0.8,4.7-0.2,6-2.1c1.2-2.8,1.6-6,0.8-9.2l0,0l-6.8-4.2l-3.1,9.1
		C88.8,103.6,90.2,106.5,92.9,107.4"/>
</g>
</svg>
