<?xml version="1.0" encoding="utf-8"?>
<!-- Generator: Adobe Illustrator 26.1.0, SVG Export Plug-In . SVG Version: 6.00 Build 0)  -->
<svg version="1.1" id="Capa_1" xmlns="http://www.w3.org/2000/svg" xmlns:xlink="http://www.w3.org/1999/xlink" x="0px" y="0px"
	 viewBox="0 0 140.5 61.3" style="enable-background:new 0 0 140.5 61.3;" xml:space="preserve">
<style type="text/css">
	.st0{fill:#221B18;}
</style>
<g>
	<path class="st0" d="M76.5,21c-0.4,0-0.8,0-1.2,0.2c-1.2,0.3-2,1-2.6,2c-0.6,1-0.7,2-0.5,3.1c0.4,2.1,2.3,3.7,4.5,3.6
		c1.1,0,2.1-0.5,2.8-1.2c1-0.9,1.4-2.1,1.4-3.4c0-0.8-0.2-1.5-0.6-2.2C79.4,21.8,78.2,21,76.5,21 M76.5,33.2c-1.5,0-2.9-0.3-4.3-1
		c-1.4-0.7-2.5-1.6-3.2-2.9c-0.7-1.1-1-2.4-1-3.7c0-0.7,0-1.4,0.2-2.1c0.3-1.2,0.9-2.2,1.7-3.1c0.9-1,2-1.6,3.2-2.1
		c1.4-0.5,2.8-0.6,4.2-0.5c2.1,0.2,3.9,0.9,5.4,2.3c1.1,1.1,1.8,2.4,2.1,3.9c0.1,0.7,0.2,1.3,0.1,2c-0.1,0.7-0.2,1.3-0.4,1.9
		c-0.3,0.9-0.8,1.8-1.4,2.5c-0.8,0.9-1.7,1.6-2.8,2.1c-0.8,0.3-1.6,0.6-2.5,0.7C77.4,33.2,77,33.2,76.5,33.2"/>
	<path class="st0" d="M51.3,25.4v-7c0-0.1,0-0.2,0-0.2c0-0.3,0-0.3,0.3-0.3c0.8,0,1.7,0,2.5,0c0.3,0,0.5,0,0.8,0
		c0.2,0,0.3,0.1,0.3,0.3c0,0.1,0,0.2,0,0.3c0,1.7,0,3.4,0,5.1c0,0.1,0,0.2,0,0.4c0,0.1,0.1,0.2,0.2,0.2c0.1,0,0.2,0,0.3,0
		c1.8,0,3.6,0,5.5,0c0.1,0,0.2,0,0.3,0c0.2,0,0.3-0.1,0.3-0.3c0-0.1,0-0.2,0-0.3c0-1.7,0-3.4,0-5.1c0-0.5,0-0.5,0.5-0.5c1,0,2,0,3,0
		c0.4,0,0.4,0,0.4,0.4c0,4.8,0,9.6,0,14.3c0,0.4,0,0.4-0.4,0.4c-1,0-2.1,0-3.1,0c-0.1,0-0.1,0-0.2,0c-0.1,0-0.2-0.1-0.2-0.2
		c0-0.1,0-0.2,0-0.3c0-1.6,0-3.2,0-4.9c0-0.1,0-0.2,0-0.3c0-0.1-0.1-0.2-0.2-0.2c-0.1,0-0.2,0-0.3,0c-1.8,0-3.7,0-5.5,0
		c0,0-0.1,0-0.1,0c-0.4,0-0.4,0-0.4,0.3c0,0.3,0,0.5,0,0.8c0,1.4,0,2.8,0,4.2c0,0.1,0,0.2,0,0.3c0,0.1-0.1,0.2-0.2,0.2
		c-0.1,0-0.1,0-0.2,0c-1,0-2.1,0-3.1,0c-0.4,0-0.4,0-0.4-0.4C51.3,30.2,51.3,27.8,51.3,25.4"/>
	<path class="st0" d="M131.1,22.8c0,1.4,0,2.8,0,4.2c0,1.3-0.4,2.6-1.2,3.6c-0.5,0.7-1.1,1.2-1.9,1.6c-1.2,0.7-2.5,0.9-3.9,0.9
		c-0.9,0-1.8,0-2.7-0.3c-1.4-0.4-2.5-1-3.4-2.1c-1-1.1-1.4-2.5-1.4-3.9c0-2.9,0-5.7,0-8.6c0-0.5,0-0.5,0.5-0.5c0.9,0,1.9,0,2.8,0
		c0.1,0,0.1,0,0.2,0c0.4,0,0.5,0.1,0.5,0.5c0,2.7,0,5.5,0,8.2c0,0.8,0.2,1.5,0.6,2.2c0.5,0.7,1.2,1.1,2,1.2c0.8,0.1,1.6,0.1,2.3-0.3
		c0.6-0.3,1-0.8,1.2-1.4c0.2-0.6,0.3-1.1,0.3-1.7c0-2.7,0-5.3,0-8c0-0.6-0.1-0.6,0.7-0.6c0.9,0,1.8,0,2.7,0c0.1,0,0.2,0,0.3,0
		c0.3,0,0.3,0.1,0.3,0.4c0,0.6,0,1.2,0,1.8C131.1,21,131.1,21.9,131.1,22.8"/>
	<path class="st0" d="M90.9,30.6c0-0.7,0-1.3,0-2c0-0.3-0.1-0.5-0.2-0.7c-0.6-1.1-1.2-2.2-1.8-3.3c-0.6-1-1.2-2.1-1.8-3.1
		c-0.6-1-1.1-2-1.7-3c-0.1-0.1-0.1-0.2-0.2-0.3c-0.1-0.2-0.1-0.4,0.2-0.4c1.1,0,2.3,0,3.4,0c0.2,0,0.3,0.1,0.4,0.3
		c0.3,0.5,0.6,1,0.8,1.5c0.5,0.9,1.1,1.8,1.6,2.7c0.3,0.6,0.7,1.2,1,1.8c0.1,0.2,0.2,0.2,0.3,0c0.5-0.9,1-1.9,1.6-2.8
		c0.4-0.7,0.8-1.3,1.1-2c0.2-0.4,0.4-0.8,0.7-1.2c0.1-0.2,0.3-0.3,0.5-0.3c1,0,2,0,3.1,0c0.6,0,0.6,0.1,0.4,0.6
		c-0.5,0.9-1,1.8-1.5,2.7c-0.9,1.6-1.8,3.3-2.7,4.9c-0.4,0.6-0.7,1.3-1.1,1.9c-0.1,0.2-0.2,0.4-0.2,0.6c0,1.3,0,2.6,0,4
		c0,0.1,0,0.2,0,0.3c0,0.2-0.1,0.2-0.2,0.2c-0.3,0-0.5,0-0.8,0c-0.9,0-1.7,0-2.6,0C91,33,91,33,91,32.6C90.9,32,90.9,31.3,90.9,30.6
		"/>
	<path class="st0" d="M108.5,17.8h6c0.1,0,0.2,0,0.3,0c0.4,0,0.4,0,0.4,0.4c0,0.8,0,1.6,0,2.4c0,0.1,0,0.1,0,0.2
		c0,0.2-0.1,0.2-0.3,0.2c-0.2,0-0.4,0-0.6,0c-1.1,0-2.3,0-3.4,0c-0.4,0-0.4,0.1-0.5,0.4c0,0.1,0,0.2,0,0.4c0,3.6,0,7.1,0,10.7
		c0,0.6,0,0.5-0.5,0.5c-1,0-2,0-3,0c-0.1,0-0.2,0-0.3,0c-0.1,0-0.2-0.1-0.2-0.2c0-0.1,0-0.3,0-0.4c0-3.6,0-7.3,0-10.9
		c0-0.5,0-0.5-0.5-0.5c-1.2,0-2.4,0-3.6,0c-0.1,0-0.2,0-0.3,0c-0.3,0-0.3,0-0.4-0.3c0-0.1,0-0.2,0-0.3c0-0.7,0-1.4,0-2.1
		c0-0.4,0-0.4,0.5-0.4c1.4,0,2.8,0,4.2,0H108.5z"/>
	<path class="st0" d="M123.3,16.9c0.8,0,1.6,0,2.3,0c0.6,0,0.9,0.3,0.9,0.8c0,1.3,0,2.5,0,3.8c0,0.1,0,0.1,0,0.2
		c0,0.1-0.1,0.2-0.2,0.1c-0.2-0.1-0.3-0.2-0.5-0.3c-0.6-0.4-1.1-0.8-1.7-1.2c-0.3-0.2-0.3-0.2-0.5,0c-0.6,0.4-1.3,0.9-1.9,1.3
		c0,0-0.1,0.1-0.1,0.1c-0.2,0.1-0.2,0.1-0.3-0.1c0-0.1,0-0.2,0-0.3c0-1.1,0-2.2,0-3.3c0-0.5-0.1-0.8-0.6-0.9c0,0-0.1-0.1-0.1-0.1
		c0,0,0.1-0.1,0.1-0.1c0.2,0,0.5,0,0.7,0C122.1,16.9,122.7,16.9,123.3,16.9"/>
	<path class="st0" d="M119.9,38.2c0-0.3,0-0.6,0-0.9c0-0.2,0-0.3,0.2-0.4c0.3,0,0.4,0,0.5,0.3c0.1,0.3,0.3,0.5,0.4,0.8
		c0,0.1,0.1,0.1,0.1,0.2c0.1,0.1,0.1,0.2,0.2,0.3c0.1-0.1,0.1-0.2,0.2-0.3c0.2-0.3,0.3-0.6,0.5-0.9c0.1-0.2,0.2-0.2,0.4-0.2
		c0.2,0,0.3,0.1,0.3,0.3c0,0.7,0,1.4,0,2.1c0,0.2-0.1,0.2-0.3,0.2c-0.2,0-0.2-0.1-0.2-0.2c0-0.4,0-0.8,0-1.1c0,0,0-0.1,0-0.1
		c0,0-0.1,0.1-0.1,0.1c-0.2,0.3-0.3,0.6-0.5,0.9c-0.1,0.1-0.2,0.2-0.3,0.2c-0.1,0-0.2-0.1-0.3-0.2c-0.2-0.3-0.3-0.6-0.5-0.9
		c0,0-0.1,0-0.1-0.1c0,0,0,0.1,0,0.1c0,0.4,0,0.7,0,1.1c0,0.1,0,0.2-0.2,0.3c-0.2,0-0.3,0-0.3-0.2C119.9,38.9,120,38.6,119.9,38.2
		L119.9,38.2z"/>
	<path class="st0" d="M85.8,43c0,0.2,0,0.4,0,0.5c0,0.2-0.2,0.2-0.3,0.2c-0.2,0-0.3-0.1-0.3-0.2c0-0.2,0-0.5,0-0.7
		c0-0.3-0.1-0.4-0.3-0.4c-0.3,0-0.4,0.1-0.4,0.4c0,0.2,0,0.4,0,0.6c0,0.3-0.1,0.4-0.3,0.4c-0.2,0-0.3,0-0.3-0.3c0-0.2,0-0.4,0-0.7
		c0-0.3-0.1-0.4-0.4-0.4c-0.3,0-0.4,0.1-0.4,0.4c0,0.2,0,0.5,0,0.7c0,0.2-0.1,0.3-0.3,0.3c-0.2,0-0.3-0.1-0.3-0.3c0-0.4,0-0.9,0-1.3
		c0-0.3,0.1-0.4,0.4-0.3c0.2,0.1,0.3,0.1,0.5,0c0.3-0.1,0.6-0.1,0.8,0.2c0.1,0.1,0.2,0.1,0.3,0c0,0,0.1-0.1,0.2-0.1
		c0.5-0.3,1,0,1.1,0.6C85.8,42.6,85.8,42.8,85.8,43"/>
	<path class="st0" d="M80,38.5c0-0.2,0-0.4,0-0.7c0-0.3,0.1-0.4,0.3-0.3c0.2,0.1,0.4,0,0.6,0c0.3-0.1,0.6-0.1,0.8,0.2
		c0.1,0.1,0.2,0.1,0.3,0c0.3-0.2,0.6-0.2,0.9-0.1c0.3,0.1,0.4,0.3,0.4,0.5c0,0.4,0,0.8,0,1.2c0,0.2-0.1,0.2-0.2,0.2
		c-0.2,0-0.3,0-0.3-0.2c0-0.3,0-0.5,0-0.8c0-0.3-0.1-0.4-0.3-0.4c-0.2,0-0.5,0.2-0.5,0.4c0,0.3,0,0.5,0,0.8c0,0.2,0,0.3-0.3,0.3
		c-0.2,0-0.3-0.1-0.3-0.3c0-0.3,0-0.5,0-0.8c0-0.3-0.1-0.4-0.3-0.4c-0.2,0-0.5,0.1-0.5,0.4c0,0.3,0,0.6,0,0.9c0,0.2-0.1,0.3-0.3,0.3
		c-0.2,0-0.2-0.1-0.2-0.2C80,39,80,38.8,80,38.5L80,38.5z"/>
	<path class="st0" d="M51.4,42.5c0-0.3,0-0.7,0-1c0-0.2,0.1-0.3,0.3-0.3c0.2,0,0.3,0,0.3,0.3c0,0,0,0.1,0,0.1c0,0.2,0,0.4,0.1,0.6
		c0.3,0,0.6,0,0.8,0c0.1,0,0.2-0.1,0.2-0.2c0-0.2,0-0.4,0-0.6c0-0.2,0.1-0.3,0.3-0.3c0.2,0,0.3,0.1,0.3,0.3c0,0.7,0,1.4,0,2
		c0,0.2-0.2,0.2-0.3,0.2c-0.2,0-0.3,0-0.3-0.2c0-0.2,0-0.4,0-0.5c0-0.1-0.1-0.2-0.2-0.2c-0.1,0-0.1,0-0.2,0c-0.7,0-0.7,0-0.7,0.6
		c0,0.3-0.1,0.3-0.3,0.3c-0.2,0-0.3-0.1-0.3-0.2C51.4,43.1,51.4,42.8,51.4,42.5"/>
	<path class="st0" d="M101.4,37.9L101.4,37.9c0,0.1,0,0.2,0,0.3c0,0.1,0.1,0.1,0.1,0.1c0.2,0,0.5,0,0.7,0c0.2,0,0.3-0.2,0.3-0.4
		c0-0.2-0.1-0.4-0.3-0.4c-0.2,0-0.4,0-0.7,0c-0.1,0-0.1,0.1-0.1,0.2C101.4,37.7,101.4,37.8,101.4,37.9 M100.9,38.2c0-0.3,0-0.7,0-1
		c0-0.2,0.1-0.3,0.3-0.3c0.4,0,0.7,0,1.1,0.1c0.3,0,0.6,0.2,0.7,0.5c0.1,0.3,0.1,0.6-0.2,0.9c-0.2,0.3-0.2,0.3,0,0.6
		c0,0,0.1,0.1,0.1,0.1c0,0.1,0.1,0.2,0.1,0.3c0,0.1-0.4,0.1-0.5,0c-0.1-0.1-0.2-0.3-0.3-0.4c-0.1-0.2-0.5-0.3-0.7-0.2
		c0,0-0.1,0.1-0.1,0.1c0,0.1,0,0.2,0,0.3c0,0.2-0.1,0.2-0.3,0.2c-0.2,0-0.3-0.1-0.3-0.2C100.9,38.9,100.9,38.6,100.9,38.2"/>
	<path class="st0" d="M106.3,39c0.3,0,0.5-0.2,0.5-0.4c0-0.3-0.2-0.6-0.5-0.6c-0.3,0-0.5,0.2-0.5,0.5C105.9,38.8,106,39,106.3,39
		 M107.4,38.6c0,0.2,0,0.4,0,0.7c0,0.6-0.4,0.9-1,1c-0.2,0-0.5-0.1-0.7-0.1c-0.1,0-0.2-0.1-0.2-0.2c0.1-0.1,0.1-0.2,0.3-0.1
		c0.1,0,0.2,0.1,0.3,0.1c0.3,0.1,0.6-0.1,0.7-0.3c0-0.1,0-0.1,0-0.2c-0.1,0-0.1,0-0.2,0c-0.2,0.1-0.5,0.1-0.7,0
		c-0.4-0.2-0.6-0.6-0.5-1c0.1-0.5,0.4-0.7,0.9-0.7c0.1,0,0.2,0,0.3,0c0.2,0.1,0.3,0.1,0.5,0c0.2-0.1,0.3,0,0.3,0.3
		C107.4,38.1,107.4,38.4,107.4,38.6L107.4,38.6z"/>
	<path class="st0" d="M77.6,38.2c0-0.3,0-0.6,0-0.9c0-0.2,0.1-0.3,0.3-0.3c0.4,0,0.9,0,1.3,0c0.3,0,0.3,0.1,0.3,0.3
		c0,0.2-0.2,0.2-0.3,0.2c-0.3,0-0.5,0-0.8,0c-0.3,0-0.3,0.1-0.3,0.3c0,0.2,0.1,0.3,0.3,0.3c0.2,0,0.5,0,0.7,0c0.2,0,0.3,0.1,0.3,0.3
		c0,0.2-0.1,0.2-0.3,0.2c-0.3,0-0.5,0-0.8,0c-0.2,0-0.2,0.1-0.2,0.3c0,0.2,0,0.3,0.2,0.3c0.3,0,0.6,0,0.9,0c0.1,0,0.3-0.1,0.3,0.2
		c0,0.2-0.1,0.3-0.3,0.3c-0.5,0-0.9,0-1.4,0c-0.2,0-0.3-0.1-0.3-0.3C77.6,38.9,77.6,38.5,77.6,38.2L77.6,38.2z"/>
	<path class="st0" d="M56.4,39.1c0.3,0,0.5-0.2,0.5-0.5c0-0.3-0.2-0.6-0.5-0.6c-0.3,0-0.5,0.2-0.5,0.6
		C55.9,38.9,56.1,39.1,56.4,39.1 M57.5,38.2c0,0.4,0,0.7,0,1.1c0,0.2-0.1,0.3-0.3,0.3c-0.2-0.1-0.4,0-0.7,0c-0.6,0.1-1-0.2-1.1-0.8
		c-0.1-0.3,0-0.5,0.1-0.8c0.2-0.4,0.6-0.5,1.1-0.4c0.1,0,0.3,0.1,0.4,0.1c0-0.1,0-0.3,0-0.4c0-0.1,0-0.1,0-0.2
		c0-0.2,0.1-0.2,0.3-0.2c0.2,0,0.2,0.1,0.2,0.2C57.5,37.4,57.5,37.8,57.5,38.2L57.5,38.2z"/>
	<path class="st0" d="M73,38c-0.3,0-0.5,0.2-0.5,0.5c0,0.3,0.2,0.5,0.6,0.5c0.3,0,0.5-0.2,0.5-0.5C73.6,38.2,73.3,38,73,38
		 M74.1,38.2c0,0.3,0,0.7,0,1c0,0.3-0.2,0.4-0.4,0.3c-0.2-0.1-0.3,0-0.5,0c-0.4,0.1-0.9,0-1.1-0.3c-0.2-0.4-0.2-0.9,0-1.3
		c0.3-0.3,0.7-0.4,1.2-0.3c0.2,0.1,0.2,0.1,0.2-0.1c0-0.1,0-0.3,0-0.4c0-0.2,0.1-0.3,0.3-0.3c0.2,0,0.2,0.1,0.2,0.3
		C74.1,37.4,74.1,37.8,74.1,38.2L74.1,38.2z"/>
	<path class="st0" d="M85.4,38.5c0-0.3-0.2-0.5-0.5-0.5c-0.3,0-0.5,0.2-0.5,0.5c0,0.3,0.2,0.6,0.5,0.6
		C85.2,39.1,85.4,38.9,85.4,38.5 M83.8,38.9c0-0.3,0-0.7,0-1c0-0.3,0.2-0.4,0.5-0.3c0.1,0,0.1,0.1,0.2,0c0.1-0.1,0.3-0.1,0.4-0.1
		c0.4,0,0.7,0.2,0.9,0.5c0.1,0.3,0.1,0.6,0,0.8c-0.1,0.5-0.7,0.7-1.3,0.5c-0.2-0.1-0.2-0.1-0.2,0.2c0,0.1,0,0.2,0,0.3
		c0,0.2-0.1,0.3-0.3,0.3c-0.2,0-0.2-0.1-0.2-0.3C83.8,39.6,83.8,39.2,83.8,38.9L83.8,38.9z"/>
	<path class="st0" d="M114.8,38.5c0,0.3,0.2,0.6,0.5,0.6c0.3,0,0.6-0.3,0.6-0.6c0-0.3-0.2-0.5-0.5-0.5C115,38,114.8,38.2,114.8,38.5
		 M116.4,38.2c0,0.3,0,0.7,0,1c0,0.3-0.1,0.4-0.4,0.3c-0.1-0.1-0.2,0-0.4,0c-0.5,0.1-0.9,0.1-1.1-0.3c-0.3-0.4-0.2-1,0-1.3
		c0.3-0.3,0.6-0.3,1-0.3c0.1,0,0.1,0,0.2,0.1c0.1,0.1,0.2,0,0.2-0.1c0-0.2,0-0.3,0-0.5c0-0.2,0.1-0.2,0.2-0.2c0.2,0,0.3,0.1,0.3,0.2
		C116.4,37.4,116.4,37.8,116.4,38.2L116.4,38.2z"/>
	<path class="st0" d="M68.8,43.1c0,0-0.1-0.1-0.1-0.1c-0.2,0-0.3,0-0.5,0c0,0-0.1,0.1-0.1,0.1c0.1,0.1,0.2,0.2,0.3,0.2
		C68.6,43.3,68.8,43.3,68.8,43.1 M69.5,43c0,0.1,0,0.3,0,0.4c0,0.3-0.2,0.4-0.4,0.3c-0.2-0.1-0.4-0.1-0.6,0c-0.1,0-0.3,0-0.4,0
		c-0.3,0-0.5-0.2-0.5-0.5c0-0.4,0.1-0.5,0.4-0.6c0.2,0,0.4,0,0.5-0.1c0.1,0,0.1-0.1,0.2-0.1c-0.1,0-0.1-0.1-0.2-0.1
		c-0.2,0-0.3,0-0.5,0c-0.2,0-0.3,0-0.3-0.2c-0.1-0.2,0.1-0.2,0.2-0.3c0.3-0.1,0.6-0.1,0.9-0.1c0.3,0,0.5,0.2,0.6,0.5
		C69.5,42.5,69.5,42.8,69.5,43C69.5,43,69.5,43,69.5,43"/>
	<path class="st0" d="M87.6,42.7c0-0.3-0.2-0.5-0.4-0.5c-0.3,0-0.5,0.2-0.5,0.5c0,0.3,0.2,0.5,0.5,0.5C87.4,43.2,87.6,43,87.6,42.7
		 M88.2,42.8c0.1,0.5-0.5,1-1.1,1c-0.6,0-1-0.4-1.1-1c0-0.6,0.4-1,1.1-1C87.8,41.8,88.2,42.1,88.2,42.8"/>
	<path class="st0" d="M55.5,42.7c0-0.3-0.2-0.5-0.4-0.5c-0.2,0-0.4,0.2-0.5,0.5c0,0.2,0.2,0.5,0.5,0.5C55.3,43.2,55.5,43,55.5,42.7
		 M56.1,42.8c0,0.6-0.4,1-1,1c-0.6,0-1.1-0.4-1.1-1c0-0.6,0.5-0.9,1.1-1C55.6,41.7,56.2,42.2,56.1,42.8"/>
	<path class="st0" d="M60.6,42.6c0,0,0.1,0,0.1,0c0.1,0,0.2-0.1,0.2-0.1c-0.1-0.1-0.1-0.2-0.2-0.2c0,0-0.1-0.1-0.2-0.1
		c-0.2,0-0.4,0.1-0.3,0.2C60.3,42.6,60.5,42.6,60.6,42.6C60.6,42.6,60.6,42.6,60.6,42.6 M60.7,43.8c-0.4,0-0.7-0.1-0.9-0.5
		c-0.2-0.4-0.2-0.8,0-1.2c0.2-0.3,0.7-0.5,1.2-0.4c0.4,0.1,0.6,0.4,0.7,0.8c0,0.3,0,0.3-0.3,0.3c-0.3,0-0.6,0-0.8,0
		c-0.1,0-0.1,0.1-0.2,0.1c0,0,0,0.1,0.1,0.1c0.2,0.1,0.4,0.1,0.6,0c0.2-0.1,0.3,0,0.4,0.1c0.1,0.2,0,0.3-0.2,0.3
		C61,43.7,60.8,43.7,60.7,43.8"/>
	<path class="st0" d="M70.9,44.4c0,0-0.1,0-0.2,0c-0.1,0-0.3-0.1-0.2-0.2c0-0.1,0.1-0.3,0.3-0.3c0.1,0,0.3,0.1,0.4-0.1
		c0-0.1,0-0.3,0-0.4c-0.2-0.4-0.4-0.8-0.5-1.2c0-0.1-0.2-0.2,0-0.3c0.2-0.1,0.4,0,0.5,0.1c0.1,0.2,0.2,0.4,0.3,0.6c0,0,0,0.1,0,0.1
		c0,0.1,0.1,0.1,0.2,0.2c0-0.1,0.1-0.1,0.1-0.2c0.1-0.2,0.1-0.4,0.2-0.6c0.1-0.2,0.2-0.3,0.4-0.3c0.3,0,0.3,0.1,0.2,0.3
		c-0.2,0.6-0.5,1.2-0.8,1.9C71.6,44.3,71.4,44.4,70.9,44.4"/>
	<path class="st0" d="M77.6,42.8c0,0.2,0,0.5,0,0.7c0,0.2,0,0.3-0.3,0.3c-0.1,0-0.2,0-0.2-0.1c-0.1-0.1-0.2-0.1-0.3,0
		c-0.5,0.2-1,0-1-0.5c-0.1-0.4,0-0.8-0.1-1.1c0-0.2,0.2-0.2,0.3-0.2c0.2,0,0.3,0.1,0.3,0.2c0,0.3,0,0.6,0.1,0.9
		c0,0.2,0.2,0.3,0.4,0.2c0.2,0,0.2-0.2,0.3-0.3c0-0.3,0-0.5,0.1-0.8c0-0.2,0.1-0.2,0.3-0.2c0.2,0,0.2,0.1,0.2,0.3
		C77.6,42.3,77.6,42.5,77.6,42.8L77.6,42.8z"/>
	<path class="st0" d="M58.9,38.3c0,0,0.1,0,0.1,0c0.1,0,0.2-0.1,0.3-0.1c-0.1-0.1-0.2-0.2-0.3-0.2c-0.1,0-0.3-0.1-0.4,0
		c-0.1,0-0.2,0.2-0.2,0.2c0.1,0,0.2,0.1,0.3,0.1C58.8,38.3,58.8,38.3,58.9,38.3 M58.8,37.5c0.8,0,0.9,0.3,1,0.9c0,0.2,0,0.3-0.3,0.3
		c-0.3,0-0.6,0-0.9,0c-0.1,0-0.1,0.1-0.2,0.1c0.1,0.1,0.1,0.1,0.2,0.2c0.2,0.1,0.4,0.1,0.6,0c0.1-0.1,0.2-0.1,0.3,0
		c0.1,0.1,0.1,0.2,0,0.3c-0.4,0.3-1.1,0.3-1.4,0c-0.4-0.3-0.4-1-0.1-1.4C58.2,37.6,58.5,37.6,58.8,37.5"/>
	<path class="st0" d="M88.4,38.3L88.4,38.3c0.1,0,0.1,0,0.2,0c0.1,0,0.2-0.1,0.2-0.1c-0.1-0.1-0.1-0.2-0.2-0.2c-0.1,0-0.3,0-0.4,0
		c-0.1,0-0.2,0.2-0.2,0.2C88.2,38.3,88.2,38.3,88.4,38.3C88.4,38.3,88.4,38.3,88.4,38.3 M88.7,38.7c-0.1,0-0.3,0-0.4,0
		c-0.1,0-0.1,0-0.2,0.1c0,0.1,0.1,0.1,0.1,0.2c0.1,0.1,0.3,0.1,0.5,0.1c0.1,0,0.2-0.1,0.3-0.1c0.2-0.1,0.3,0,0.3,0.1
		c0,0.1,0,0.2-0.1,0.2c-0.3,0.2-1,0.2-1.4,0c-0.3-0.2-0.5-0.8-0.3-1.2c0.2-0.4,0.6-0.6,1.1-0.6c0.5,0.1,0.8,0.4,0.8,0.9
		c0,0.2-0.1,0.3-0.3,0.3C89,38.7,88.9,38.7,88.7,38.7L88.7,38.7z"/>
	<path class="st0" d="M63.5,42.5c0,0,0.1,0.1,0.1,0.1c0.1,0,0.3,0,0.4,0c0.1,0,0.1-0.1,0.2-0.1c-0.1-0.1-0.1-0.2-0.2-0.2
		C63.9,42.1,63.6,42.2,63.5,42.5C63.5,42.4,63.5,42.5,63.5,42.5 M62.9,42.7c0-0.5,0.2-0.7,0.6-0.9c0.4-0.2,0.8-0.1,1.1,0.2
		c0.2,0.2,0.2,0.5,0.3,0.8c0,0-0.1,0.1-0.2,0.1c-0.2,0-0.4,0-0.6,0c-0.1,0-0.2,0-0.3,0c-0.1,0-0.1,0.1-0.1,0.1
		c0,0.1,0.1,0.2,0.1,0.2c0.2,0,0.4,0,0.5,0c0.1,0,0.2-0.1,0.2-0.1c0.1,0,0.2,0.1,0.2,0.2c0,0-0.1,0.2-0.1,0.2
		c-0.4,0.2-0.8,0.3-1.2,0.1C63,43.4,62.8,43.1,62.9,42.7"/>
	<path class="st0" d="M54.3,38.3c0.1,0,0.1,0,0.2,0c0.1,0,0.2,0,0.3-0.1c-0.1-0.1-0.1-0.2-0.2-0.2c-0.1,0-0.3-0.1-0.4,0
		c-0.1,0-0.2,0.2-0.2,0.2c0.1,0,0.2,0.1,0.3,0.1C54.2,38.3,54.2,38.3,54.3,38.3 M54.5,38.8c-0.2,0-0.3,0-0.5,0c0,0-0.1,0-0.1,0
		c0,0,0,0.1,0.1,0.1c0.2,0.2,0.5,0.2,0.7,0.1c0.1,0,0.2-0.1,0.3-0.1c0.1,0,0.2,0.1,0.2,0.2c0,0.1-0.1,0.2-0.1,0.2
		c-0.4,0.2-0.8,0.2-1.1,0.1c-0.4-0.2-0.6-0.5-0.5-1c0-0.7,0.9-1.2,1.6-0.8c0.3,0.2,0.5,0.6,0.4,1c0,0.1-0.1,0.1-0.2,0.1
		C54.8,38.8,54.7,38.7,54.5,38.8L54.5,38.8z"/>
	<path class="st0" d="M75.4,38.3L75.4,38.3c0.1,0,0.2,0,0.3,0c0,0,0.1,0,0.1-0.1c0,0,0-0.1,0-0.1c-0.1-0.2-0.4-0.2-0.6-0.1
		c-0.1,0.1-0.2,0.2-0.2,0.2c0.1,0,0.2,0,0.3,0.1C75.3,38.3,75.4,38.3,75.4,38.3 M75.6,38.8c-0.2,0-0.3,0-0.5,0c0,0-0.1,0-0.1,0
		c0,0,0,0.1,0.1,0.1c0.2,0.2,0.4,0.2,0.7,0.2c0.1,0,0.2-0.1,0.2-0.1c0.2-0.1,0.3,0,0.3,0.1c0,0.1,0,0.2-0.1,0.2
		c-0.4,0.3-0.8,0.3-1.2,0.1c-0.4-0.2-0.5-0.5-0.5-0.9c0-0.6,0.5-1,1.1-1c0.7,0,0.9,0.3,1,1c0,0.1-0.1,0.2-0.2,0.2
		C76,38.8,75.8,38.7,75.6,38.8L75.6,38.8z"/>
	<path class="st0" d="M67.5,39.1c0.3,0,0.5-0.2,0.5-0.5c0-0.3-0.3-0.5-0.6-0.5c-0.3,0-0.5,0.2-0.5,0.5C67,38.9,67.2,39.1,67.5,39.1
		 M67.5,39.5c-0.7,0-1-0.3-1.1-0.9c0-0.7,0.4-1,1-1c0.6,0,1.1,0.4,1.1,1C68.5,39.2,68.1,39.5,67.5,39.5"/>
	<path class="st0" d="M96.9,38c-0.3,0-0.5,0.2-0.5,0.5c0,0.3,0.2,0.5,0.5,0.6c0.4,0,0.6-0.2,0.6-0.5C97.4,38.2,97.2,38,96.9,38
		 M97.9,38.5c0,0.6-0.4,1-1.1,1c-0.6,0-1-0.5-1-1c0-0.6,0.5-1,1.1-1C97.5,37.5,97.9,37.9,97.9,38.5"/>
	<path class="st0" d="M92.4,38.7c-0.1,0-0.2,0-0.2,0c-0.2,0-0.3,0.1-0.3,0.2c0,0.2,0.2,0.2,0.4,0.2c0.1,0,0.1,0,0.2-0.1
		c0.1-0.1,0.2-0.2,0.2-0.3C92.5,38.7,92.4,38.7,92.4,38.7 M93.1,38.7c0,0.2,0,0.4,0,0.5c0,0.2-0.1,0.3-0.3,0.3c-0.2-0.1-0.4,0-0.6,0
		c-0.1,0-0.3,0-0.5,0c-0.3-0.1-0.5-0.3-0.5-0.6c0-0.3,0.2-0.5,0.5-0.5c0.2,0,0.4,0,0.6,0c0.1,0,0.1-0.1,0.2-0.1
		c0-0.1-0.1-0.2-0.1-0.2c-0.2,0-0.4,0-0.5,0c-0.1,0-0.2,0.1-0.2,0.1c-0.1,0-0.2-0.1-0.2-0.2c0,0,0-0.2,0.1-0.2
		c0.3-0.2,1-0.3,1.3-0.1c0.2,0.1,0.3,0.3,0.3,0.5C93.1,38.4,93.1,38.5,93.1,38.7L93.1,38.7z"/>
	<path class="st0" d="M104.2,38.3L104.2,38.3c0.1,0,0.3,0,0.4,0c0.1,0,0.1-0.1,0.1-0.2c-0.1-0.2-0.5-0.3-0.7-0.1
		c-0.1,0.1-0.1,0.2-0.2,0.3c0.1,0,0.2,0,0.3,0C104.2,38.3,104.2,38.3,104.2,38.3 M104.3,39.5c-0.4,0-0.7-0.2-0.9-0.5
		c-0.2-0.4-0.1-0.8,0.1-1.1c0.3-0.4,0.7-0.4,1.2-0.3c0.3,0.1,0.5,0.4,0.5,0.9c0,0.2-0.1,0.3-0.3,0.3c-0.3,0-0.6,0-0.9,0
		c-0.1,0-0.1,0-0.2,0.1c0,0.1,0.1,0.2,0.1,0.2c0.2,0.1,0.3,0.1,0.5,0.1c0.1,0,0.2,0,0.2-0.1c0.2-0.1,0.3-0.1,0.3,0.1
		c0.1,0.1,0,0.2-0.2,0.3C104.7,39.4,104.5,39.5,104.3,39.5"/>
	<path class="st0" d="M117.7,38.3L117.7,38.3c0.1,0,0.2,0,0.3,0c0,0,0.1,0,0.1-0.1c0,0,0-0.1,0-0.1c-0.1-0.2-0.4-0.2-0.6-0.1
		c-0.1,0.1-0.1,0.2-0.2,0.3c0.1,0,0.2,0,0.3,0C117.6,38.3,117.7,38.3,117.7,38.3 M117.9,38.7c-0.1,0-0.3,0-0.4,0
		c-0.1,0-0.1,0-0.2,0.1c0,0.1,0.1,0.1,0.1,0.2c0.2,0.1,0.4,0.2,0.6,0.1c0.1,0,0.2-0.1,0.3-0.1c0.1,0,0.2,0.1,0.2,0.1
		c0,0,0,0.2-0.1,0.2c-0.4,0.4-1.4,0.2-1.6-0.3c-0.2-0.4-0.1-0.9,0.2-1.1c0.3-0.3,0.8-0.3,1.2-0.2c0.3,0.1,0.6,0.6,0.5,0.9
		c0,0.1-0.1,0.1-0.2,0.1C118.3,38.8,118.1,38.7,117.9,38.7L117.9,38.7z"/>
	<path class="st0" d="M51.4,38.2c0-0.3,0-0.7,0-1c0-0.2,0.1-0.3,0.3-0.3c0.4,0,0.9,0,1.3,0c0.1,0,0.2,0,0.2,0.2c0,0.1,0,0.3-0.2,0.3
		c-0.3,0-0.5,0-0.8,0c-0.2,0-0.3,0.1-0.3,0.3c0,0.3,0,0.3,0.2,0.3c0.2,0,0.5,0,0.7,0c0.1,0,0.2,0.1,0.2,0.2c0,0.1,0,0.3-0.2,0.3
		c-0.3,0-0.5,0-0.8,0c-0.2,0-0.2,0.1-0.2,0.2c0,0.2,0,0.4,0,0.6c0,0.2-0.1,0.2-0.3,0.2c-0.1,0-0.3,0-0.3-0.2
		C51.4,39,51.4,38.6,51.4,38.2L51.4,38.2z"/>
	<path class="st0" d="M62.3,38.6L62.3,38.6c-0.1,0-0.2,0-0.2,0c-0.1,0-0.3,0.1-0.2,0.2c0,0.1,0.2,0.2,0.3,0.2c0.1,0,0.2,0,0.2-0.1
		c0.1-0.1,0.2-0.2,0.3-0.3C62.5,38.7,62.4,38.7,62.3,38.6 M63.1,38.7c0,0.2,0,0.4,0,0.6c0,0.2-0.1,0.3-0.3,0.2c-0.2-0.1-0.4,0-0.7,0
		c-0.3,0-0.6,0-0.8-0.2c-0.3-0.4-0.1-0.9,0.4-0.9c0.2,0,0.4,0,0.6,0c0,0,0.1,0,0.1-0.1c0,0,0-0.1-0.1-0.1c-0.1-0.1-0.3-0.2-0.5-0.1
		c-0.1,0-0.2,0.1-0.4,0.1c-0.1,0-0.2-0.1-0.2-0.1c0-0.1,0-0.2,0.1-0.2c0.3-0.2,1-0.2,1.3-0.1c0.2,0.1,0.3,0.3,0.3,0.5
		C63.1,38.4,63.1,38.5,63.1,38.7L63.1,38.7z"/>
	<path class="st0" d="M130.9,38.7C130.9,38.7,130.9,38.7,130.9,38.7c-0.1,0-0.2,0-0.2,0c-0.1,0.1-0.2,0.2-0.2,0.2
		c0.1,0.1,0.2,0.2,0.3,0.2c0.2,0,0.3-0.1,0.5-0.2c0,0,0.1-0.1,0.1-0.2c0,0-0.1-0.1-0.1-0.1C131,38.7,130.9,38.7,130.9,38.7
		 M131.7,38.7c0,0.2,0,0.4,0,0.5c0,0.2-0.1,0.2-0.2,0.2c-0.3-0.1-0.6,0-0.9,0c-0.4,0-0.6-0.2-0.6-0.6c0-0.4,0.2-0.6,0.6-0.6
		c0.2,0,0.3,0,0.5,0c0,0,0.1-0.1,0.1-0.1c0-0.1,0-0.2-0.1-0.2c-0.2,0-0.3-0.1-0.5-0.1c-0.1,0-0.2,0.1-0.3,0.1
		c-0.1,0-0.2-0.1-0.2-0.2c0,0,0.1-0.2,0.1-0.2c0.4-0.2,0.7-0.2,1.1-0.1c0.3,0.1,0.4,0.3,0.4,0.6C131.7,38.4,131.7,38.6,131.7,38.7
		L131.7,38.7z"/>
	<path class="st0" d="M68.8,38.5c0-0.2,0-0.4,0-0.6c0-0.3,0.1-0.4,0.4-0.3c0.1,0.1,0.2,0.1,0.4,0c0.1,0,0.2-0.1,0.3-0.1
		c0.5-0.1,0.8,0.2,0.8,0.7c0,0.4,0,0.7,0,1.1c0,0.2-0.1,0.2-0.3,0.2c-0.2,0-0.3-0.1-0.3-0.2c0-0.3,0-0.5,0-0.8
		c0-0.3-0.1-0.4-0.3-0.4c-0.2,0-0.4,0.1-0.5,0.3c0,0.1-0.1,0.2-0.1,0.4c0,0.1,0,0.3,0,0.4c0,0.3,0,0.4-0.3,0.4
		c-0.2,0-0.2-0.1-0.3-0.4C68.8,38.9,68.8,38.7,68.8,38.5L68.8,38.5z"/>
	<path class="st0" d="M74.5,41.2c0.3,0,0.5,0,0.8,0c0.2,0,0.2,0.1,0.2,0.3c0,0.2-0.1,0.2-0.3,0.2c-0.1,0-0.1,0-0.2,0
		c-0.3,0-0.4,0.1-0.4,0.4c0,0.4,0,0.9,0,1.3c0,0.2-0.1,0.3-0.3,0.3c-0.2,0-0.3-0.1-0.3-0.3c0-0.3,0-0.7,0-1c0-0.1,0-0.2,0-0.3
		c0-0.3-0.1-0.4-0.4-0.3c-0.3,0-0.4,0-0.4-0.3c0-0.2,0-0.3,0.3-0.3C73.9,41.2,74.2,41.2,74.5,41.2"/>
	<path class="st0" d="M113.1,38.7c0,0.1,0,0.2,0,0.4c0,0.3,0,0.4-0.2,0.4c-0.2,0-0.3,0-0.3-0.4c0-0.2,0-0.5,0-0.7
		c0-0.3-0.1-0.4-0.3-0.4c-0.2,0-0.4,0-0.5,0.2c-0.1,0.1-0.1,0.2-0.1,0.3c0,0.2,0,0.4,0,0.6c0,0.3-0.1,0.3-0.3,0.3
		c-0.2,0-0.2-0.1-0.2-0.3c0-0.4,0-0.9,0-1.3c0-0.3,0.2-0.4,0.4-0.3c0.1,0.1,0.2,0.1,0.4,0c0.1,0,0.2,0,0.4-0.1
		c0.5,0,0.7,0.2,0.8,0.6C113.1,38.4,113.1,38.6,113.1,38.7L113.1,38.7z"/>
	<path class="st0" d="M109.8,38c-0.3,0-0.6,0.2-0.6,0.6c0,0.3,0.3,0.5,0.5,0.5c0.3,0,0.6-0.2,0.5-0.6C110.3,38.2,110.1,38,109.8,38
		 M109.7,39.5c-0.4,0-0.8-0.1-0.9-0.5c-0.2-0.4-0.1-0.7,0.1-1.1c0.2-0.3,0.8-0.5,1.2-0.3c0.3,0.1,0.6,0.5,0.7,0.8
		C110.9,39.1,110.3,39.6,109.7,39.5"/>
	<path class="st0" d="M81.3,43.8c-0.2-0.1-0.4-0.1-0.6-0.2c-0.2-0.1-0.2-0.2-0.2-0.4c0.1-0.2,0.2-0.1,0.3-0.1
		c0.1,0.1,0.3,0.1,0.4,0.1c0.1,0,0.1-0.1,0.2-0.1c0-0.1-0.1-0.1-0.1-0.1c-0.1-0.1-0.2-0.1-0.4-0.1c-0.4-0.1-0.5-0.3-0.5-0.6
		c0-0.3,0.3-0.5,0.6-0.6c0.2,0,0.4,0,0.7,0.1c0.2,0,0.3,0.2,0.2,0.3c-0.1,0.2-0.2,0.2-0.3,0.1c-0.2-0.1-0.4-0.2-0.5,0
		c-0.1,0.2,0.2,0.2,0.4,0.2c0,0,0.1,0,0.1,0c0.3,0.1,0.5,0.3,0.4,0.6c0,0.3-0.3,0.5-0.6,0.5C81.4,43.7,81.4,43.7,81.3,43.8
		L81.3,43.8z"/>
	<path class="st0" d="M57.2,41.7c0.2,0,0.4,0.1,0.5,0.1c0.1,0,0.2,0.1,0.1,0.3c-0.1,0.1-0.1,0.2-0.3,0.2c-0.1,0-0.3-0.1-0.4-0.1
		c0,0-0.1,0-0.1,0.1c0,0,0,0.1,0.1,0.1c0.1,0.1,0.3,0.1,0.4,0.2c0.2,0.1,0.4,0.2,0.5,0.5c0,0.2-0.1,0.5-0.4,0.6
		c-0.4,0.2-0.8,0.1-1.1-0.1c-0.2-0.1-0.1-0.2,0-0.3c0.1-0.1,0.1-0.1,0.2-0.1c0.1,0.1,0.3,0.1,0.5,0.1c0.1,0,0.1,0,0.2-0.1
		c0-0.1,0-0.2-0.1-0.2C57.1,43,57,43,56.9,42.9c-0.4-0.2-0.6-0.4-0.5-0.7C56.4,42,56.7,41.8,57.2,41.7
		C57.1,41.8,57.1,41.8,57.2,41.7C57.2,41.8,57.2,41.7,57.2,41.7"/>
	<path class="st0" d="M125.1,38.5c0,0.2,0,0.4,0,0.6c0,0.3-0.1,0.4-0.4,0.3c-0.1-0.1-0.2-0.1-0.4,0c-0.2,0-0.3,0.1-0.5,0
		c-0.3,0-0.6-0.2-0.6-0.5c0-0.4,0-0.8,0-1.1c0-0.2,0.1-0.2,0.3-0.2c0.2,0,0.1,0.2,0.1,0.2c0,0.3,0,0.5,0,0.8c0,0.3,0.2,0.5,0.4,0.5
		c0.3,0,0.5-0.2,0.5-0.5c0-0.2,0-0.5,0-0.7c0-0.2,0.1-0.3,0.3-0.3c0.2,0,0.2,0.1,0.2,0.3C125.1,38.1,125.1,38.3,125.1,38.5
		L125.1,38.5z"/>
	<path class="st0" d="M90.4,37.5c0.2,0,0.4,0.1,0.5,0.1c0.1,0,0.2,0.1,0.2,0.3c-0.1,0.2-0.2,0.2-0.3,0.2c-0.1,0-0.3-0.1-0.4-0.1
		c0,0-0.1,0.1-0.1,0.1c0,0,0.1,0.1,0.1,0.1c0.1,0.1,0.3,0.1,0.4,0.2c0.3,0.1,0.5,0.3,0.4,0.6c0,0.3-0.2,0.4-0.5,0.5
		c-0.3,0.1-0.6,0-0.9-0.1c-0.1-0.1-0.2-0.2-0.1-0.3c0.1-0.2,0.2-0.2,0.3-0.1c0.1,0.1,0.3,0.1,0.4,0.1c0.1,0,0.3,0,0.3-0.1
		c0-0.1-0.1-0.2-0.2-0.2c-0.1-0.1-0.2-0.1-0.4-0.1c-0.3-0.1-0.5-0.3-0.4-0.6c0-0.3,0.2-0.5,0.5-0.5C90.2,37.5,90.3,37.5,90.4,37.5"
		/>
	<path class="st0" d="M98.8,39.5c-0.2,0-0.3-0.1-0.5-0.1c-0.1,0-0.3-0.1-0.2-0.3c0.1-0.2,0.1-0.2,0.4-0.1c0.2,0,0.3,0.1,0.5,0.1
		c0.1,0,0.1-0.1,0.2-0.1c0,0-0.1-0.1-0.1-0.1c-0.2-0.1-0.4-0.1-0.6-0.2c-0.3-0.2-0.4-0.5-0.2-0.8c0.1-0.1,0.1-0.1,0.2-0.2
		c0.3-0.1,0.7-0.1,1,0c0.1,0,0.2,0.1,0.1,0.2c-0.1,0.1-0.1,0.2-0.3,0.2C99.1,38,99,38,98.9,38c-0.1,0-0.2,0.1-0.3,0.1
		c0.1,0.1,0.1,0.1,0.2,0.2c0.1,0.1,0.3,0.1,0.4,0.2c0.3,0.1,0.4,0.3,0.4,0.6c0,0.2-0.2,0.4-0.5,0.5C99,39.5,98.9,39.5,98.8,39.5"/>
	<path class="st0" d="M59.1,43.7c-0.5,0-0.7-0.2-0.7-0.6c0-0.2,0-0.4,0-0.5c0-0.1,0-0.2-0.1-0.3c-0.2-0.1-0.2-0.2,0-0.4
		c0.1-0.1,0.1-0.1,0.1-0.2c0-0.2,0.1-0.3,0.3-0.3c0.2,0,0.3,0,0.3,0.3c0,0.2,0.1,0.2,0.3,0.2c0,0,0.1,0,0.1,0
		c0.1,0.1,0.2,0.1,0.2,0.2c0,0.1-0.1,0.1-0.2,0.2c-0.1,0.1-0.3,0-0.3,0.1c-0.1,0.1-0.1,0.3,0,0.4c0,0.2,0,0.5,0.4,0.5
		c0.1,0,0.2,0.1,0.2,0.2c0,0.1-0.1,0.2-0.1,0.2C59.2,43.7,59.1,43.7,59.1,43.7"/>
	<path class="st0" d="M63.4,38.5c0-0.4,0.1-0.7,0.5-0.9c0.4-0.2,0.8-0.2,1.2,0c0.1,0.1,0.2,0.2,0.1,0.3c-0.1,0.1-0.2,0.2-0.3,0.1
		c-0.1,0-0.1-0.1-0.2-0.1c-0.2,0-0.5,0-0.6,0.2c-0.1,0.1-0.1,0.5,0,0.6c0.1,0.2,0.4,0.3,0.6,0.2c0.1,0,0.2-0.1,0.3-0.1
		c0.2-0.1,0.3,0,0.4,0.1c0.1,0.1,0,0.2-0.1,0.3c-0.4,0.2-0.8,0.2-1.2,0.1C63.5,39.2,63.4,38.9,63.4,38.5"/>
	<path class="st0" d="M127.9,39.5c-0.6,0-0.9-0.2-1-0.6c-0.1-0.5,0-1,0.5-1.2c0.3-0.2,0.7-0.1,1.1,0c0.1,0.1,0.3,0.1,0.2,0.3
		c-0.1,0.2-0.2,0.2-0.4,0.1c-0.1-0.1-0.2-0.1-0.4-0.1c-0.3,0-0.5,0.2-0.5,0.5c0,0.3,0.2,0.6,0.5,0.5c0.1,0,0.3-0.1,0.4-0.1
		c0.1,0,0.2,0,0.3,0.1c0.1,0.1,0,0.2-0.1,0.3C128.4,39.5,128.1,39.5,127.9,39.5"/>
	<path class="st0" d="M61.9,42.4c0-0.3,0-0.6,0-0.9c0-0.3,0-0.4,0.3-0.4c0.3,0,0.3,0.1,0.3,0.4c0,0.5,0,0.9,0,1.4c0,0.2,0,0.3,0,0.5
		c0,0.3-0.1,0.4-0.3,0.4c-0.2,0-0.3,0-0.3-0.3C61.9,43,61.9,42.7,61.9,42.4L61.9,42.4z"/>
	<path class="st0" d="M78.4,41.8c0,0,0.1,0,0.1,0c0.1,0.2,0.3,0.1,0.4,0c0.1-0.1,0.2-0.1,0.3,0.1c0.1,0.1,0,0.4-0.1,0.4
		c-0.5,0.1-0.5,0.4-0.5,0.8c0,0.1,0,0.2,0,0.3c0,0.3-0.1,0.3-0.3,0.3c-0.2,0-0.3-0.1-0.3-0.3c0-0.5,0-0.9,0-1.4
		C78.1,41.8,78.2,41.8,78.4,41.8"/>
	<path class="st0" d="M65.2,42.7c0-0.2,0-0.4,0-0.6c0-0.3,0.3-0.5,0.5-0.3c0.2,0.1,0.2,0.1,0.3,0c0.1,0,0.3-0.1,0.3,0
		c0.1,0.1,0.1,0.2,0.1,0.3c0,0.1-0.1,0.1-0.2,0.2c-0.4,0.2-0.4,0.2-0.5,0.6c0,0.2,0,0.4,0,0.5c0,0.2-0.1,0.2-0.3,0.2
		c-0.2,0-0.3-0.1-0.3-0.2C65.2,43.2,65.2,43,65.2,42.7L65.2,42.7z"/>
	<path class="st0" d="M86.2,38.5c0-0.2,0-0.4,0-0.7c0-0.3,0.1-0.4,0.4-0.3c0.2,0.1,0.4,0,0.6,0c0.1,0,0.2,0,0.2,0.1
		c0.1,0.1,0,0.3-0.1,0.4c-0.4,0.1-0.5,0.3-0.5,0.7c0,0.2,0,0.3,0,0.5c0,0.2,0,0.3-0.3,0.3c-0.2,0-0.3,0-0.3-0.3
		C86.2,39,86.2,38.7,86.2,38.5L86.2,38.5z"/>
	<path class="st0" d="M93.6,38.5c0-0.2,0-0.5,0-0.7c0-0.2,0.1-0.3,0.3-0.2c0.2,0.1,0.4,0.1,0.7,0c0.1,0,0.2,0,0.3,0.1
		c0,0.1,0,0.2-0.1,0.3c-0.1,0-0.1,0-0.2,0c-0.3,0.1-0.4,0.3-0.4,0.5c0,0.2,0,0.4,0,0.7c0,0.2-0.1,0.3-0.3,0.3
		c-0.2,0-0.3-0.1-0.3-0.3C93.6,39,93.6,38.7,93.6,38.5L93.6,38.5z"/>
	<path class="st0" d="M60.1,38.5c0-0.2,0-0.4,0-0.6c0-0.3,0.3-0.4,0.5-0.2c0.1,0.1,0.1,0.1,0.2,0c0.1,0,0.1-0.1,0.2-0.1
		c0.1,0,0.2-0.1,0.3,0.1c0,0.1,0.1,0.3-0.1,0.4c-0.5,0.1-0.5,0.4-0.5,0.8c0,0.1,0,0.2,0,0.4c0,0.2,0,0.3-0.3,0.3
		c-0.2,0-0.3-0.1-0.3-0.3C60.1,39,60.1,38.8,60.1,38.5L60.1,38.5z"/>
	<path class="st0" d="M125.9,37.6c0,0,0.1,0,0.1,0c0.1,0.1,0.2,0,0.4,0c0.1,0,0.3-0.2,0.4,0.1c0.1,0.2,0,0.3-0.2,0.3
		c-0.3,0.1-0.4,0.3-0.4,0.6c0,0.2,0,0.4,0,0.7c0,0.2-0.1,0.2-0.3,0.2c-0.2,0-0.2-0.1-0.2-0.2c0-0.5,0-1,0-1.5
		C125.6,37.7,125.7,37.6,125.9,37.6"/>
	<path class="st0" d="M79.6,42.8c0-0.3,0-0.5,0-0.8c0-0.2,0.1-0.2,0.2-0.2c0.2,0,0.3,0,0.3,0.2c0,0.5,0,1,0,1.5
		c0,0.2-0.2,0.2-0.4,0.2c-0.2,0-0.2-0.1-0.2-0.2C79.6,43.2,79.6,43,79.6,42.8"/>
	<path class="st0" d="M66.7,42.8c0-0.2,0-0.5,0-0.7c0-0.2,0.1-0.3,0.2-0.3c0.2,0,0.3,0,0.3,0.2c0,0.5,0,1,0,1.5
		c0,0.2-0.2,0.2-0.4,0.2c-0.2,0-0.2-0.1-0.2-0.2C66.7,43.2,66.7,43,66.7,42.8L66.7,42.8z"/>
	<path class="st0" d="M66.1,38.5c0,0.3,0,0.5,0,0.8c0,0.2-0.1,0.2-0.3,0.2c-0.2,0-0.2-0.1-0.2-0.2c0-0.5,0-1,0-1.5
		c0-0.2,0.1-0.2,0.3-0.2c0.2,0,0.2,0.1,0.2,0.2C66.1,38,66.1,38.3,66.1,38.5L66.1,38.5z"/>
	<path class="st0" d="M95.5,38.5c0,0.2,0,0.5,0,0.7c0,0.1-0.1,0.2-0.2,0.2c-0.2,0-0.3-0.1-0.3-0.2c0-0.4,0-0.7,0-1.1
		c0-0.1,0-0.2,0-0.3c0-0.3,0-0.3,0.3-0.3c0.2,0,0.2,0.1,0.2,0.2C95.5,38,95.5,38.3,95.5,38.5"/>
	<path class="st0" d="M107.9,38.5c0-0.2,0-0.5,0-0.7c0-0.1,0.1-0.2,0.1-0.2c0.1,0,0.3,0,0.3,0.1c0,0,0,0.1,0,0.1c0,0.5,0,0.9,0,1.4
		c0,0.2,0,0.3-0.2,0.3c-0.2,0-0.2-0.1-0.2-0.3C107.9,39,107.9,38.7,107.9,38.5L107.9,38.5z"/>
	<path class="st0" d="M129.5,38.5c0,0.2,0,0.5,0,0.7c0,0.2,0,0.3-0.2,0.3c-0.2,0-0.2-0.1-0.2-0.2c0-0.5,0-0.9,0-1.4
		c0-0.2,0.1-0.2,0.3-0.2c0.1,0,0.2,0,0.2,0.1C129.5,38,129.5,38.3,129.5,38.5L129.5,38.5z"/>
	<path class="st0" d="M80.2,41.3c0,0.2-0.1,0.3-0.3,0.3c-0.1,0-0.3-0.2-0.3-0.3c0-0.2,0.1-0.3,0.3-0.3C80,40.9,80.2,41.1,80.2,41.3"
		/>
	<path class="st0" d="M67,41.6c-0.3,0-0.3-0.1-0.3-0.2c0-0.1,0.1-0.2,0.1-0.2c0.1-0.1,0.4-0.1,0.5,0c0.1,0.1-0.1,0.2-0.1,0.3
		C67.2,41.5,67.1,41.6,67,41.6"/>
	<path class="st0" d="M67.4,37.4c0,0-0.1,0-0.1-0.1c0,0,0-0.1,0-0.2c0-0.1,0.1-0.2,0.2-0.2c0.1-0.1,0.4-0.1,0.5,0c0,0,0,0.1,0,0.1
		C67.8,37.2,67.7,37.4,67.4,37.4"/>
	<path class="st0" d="M95.5,37.1c0,0.2-0.1,0.3-0.3,0.3c-0.2,0-0.3-0.1-0.3-0.3c0-0.2,0.1-0.3,0.3-0.3
		C95.4,36.8,95.5,36.9,95.5,37.1"/>
	<path class="st0" d="M109.7,37.4c0,0-0.1,0-0.1-0.1c0,0,0-0.1,0.1-0.2c0.2-0.3,0.4-0.3,0.6-0.2c0,0,0.1,0.1,0.1,0.1
		C110.1,37.2,110,37.4,109.7,37.4"/>
	<path class="st0" d="M66.1,37.2c-0.1,0-0.1,0.2-0.3,0.2c-0.2,0-0.3-0.1-0.3-0.3c0-0.1,0.2-0.3,0.3-0.3C66,36.8,66.1,36.9,66.1,37.2
		"/>
	<path class="st0" d="M129.3,36.8c0.2,0,0.4,0.2,0.3,0.3c0,0.1-0.1,0.2-0.3,0.2c-0.1,0-0.3-0.2-0.3-0.3
		C129.1,36.9,129.2,36.9,129.3,36.8"/>
	<path class="st0" d="M108.1,37.4c-0.1-0.1-0.2-0.2-0.3-0.3c-0.1-0.1,0.1-0.3,0.2-0.3c0.2,0,0.4,0.1,0.3,0.3
		C108.4,37.2,108.3,37.3,108.1,37.4"/>
	<g>
		<path class="st0" d="M12.8,20.3c0.4,0.3,0.6,0.7,0.6,1.2h-0.7c-0.1-0.3-0.2-0.6-0.5-0.8c-0.2-0.2-0.6-0.3-1-0.3
			c-0.5,0-0.9,0.2-1.3,0.5c-0.3,0.4-0.5,0.9-0.5,1.7c0,0.6,0.1,1.1,0.4,1.5c0.3,0.4,0.7,0.6,1.3,0.6c0.5,0,0.9-0.2,1.2-0.6
			c0.1-0.2,0.3-0.5,0.3-0.8h0.7c-0.1,0.5-0.3,1-0.6,1.4c-0.4,0.4-1,0.7-1.7,0.7c-0.6,0-1.1-0.2-1.6-0.6c-0.6-0.5-0.8-1.2-0.8-2.3
			c0-0.8,0.2-1.4,0.6-1.9c0.5-0.5,1.1-0.8,1.9-0.8C11.9,19.8,12.5,20,12.8,20.3z"/>
		<path class="st0" d="M17.2,21.7c0.4,0.3,0.5,0.8,0.5,1.4c0,0.6-0.2,1.1-0.5,1.5c-0.3,0.4-0.8,0.6-1.4,0.6c-0.5,0-1-0.2-1.3-0.5
			c-0.3-0.4-0.5-0.8-0.5-1.4c0-0.6,0.2-1.1,0.5-1.5c0.3-0.4,0.8-0.6,1.3-0.6C16.4,21.2,16.9,21.4,17.2,21.7z M16.8,24.3
			c0.2-0.3,0.2-0.7,0.2-1.1c0-0.4-0.1-0.6-0.2-0.9c-0.2-0.4-0.5-0.5-1-0.5c-0.4,0-0.7,0.1-0.9,0.4c-0.2,0.3-0.3,0.7-0.3,1.1
			c0,0.4,0.1,0.7,0.3,1c0.2,0.3,0.5,0.4,0.9,0.4C16.4,24.7,16.7,24.6,16.8,24.3z"/>
		<path class="st0" d="M18.6,21.3h0.6v0.5c0.2-0.2,0.4-0.4,0.6-0.5c0.2-0.1,0.4-0.1,0.7-0.1c0.6,0,0.9,0.2,1.1,0.6
			c0.1,0.2,0.2,0.5,0.2,0.9v2.4h-0.7v-2.4c0-0.2,0-0.4-0.1-0.6c-0.1-0.2-0.3-0.4-0.6-0.4c-0.2,0-0.3,0-0.4,0
			c-0.2,0.1-0.3,0.2-0.5,0.3c-0.1,0.1-0.2,0.3-0.2,0.4c0,0.1-0.1,0.3-0.1,0.6v2h-0.7V21.3z"/>
		<path class="st0" d="M27.3,21.5c0.3,0.1,0.5,0.3,0.6,0.5c0.1,0.2,0.2,0.4,0.3,0.7c0,0.2,0.1,0.5,0.1,0.8h-2.9
			c0,0.4,0.1,0.7,0.3,0.9s0.4,0.4,0.8,0.4c0.3,0,0.6-0.1,0.8-0.3c0.1-0.1,0.2-0.3,0.2-0.4h0.7c0,0.1-0.1,0.3-0.2,0.5
			c-0.1,0.2-0.2,0.3-0.3,0.4c-0.2,0.2-0.4,0.3-0.7,0.4c-0.2,0-0.3,0.1-0.5,0.1c-0.5,0-0.9-0.2-1.2-0.5c-0.3-0.3-0.5-0.8-0.5-1.4
			c0-0.6,0.2-1.1,0.5-1.5c0.3-0.4,0.8-0.6,1.3-0.6C26.8,21.3,27,21.3,27.3,21.5z M27.5,22.9c0-0.3-0.1-0.5-0.2-0.7
			c-0.2-0.3-0.5-0.5-0.9-0.5c-0.3,0-0.6,0.1-0.8,0.3c-0.2,0.2-0.3,0.5-0.3,0.8H27.5z"/>
		<path class="st0" d="M29.1,19.9h0.7v5.2h-0.7V19.9z"/>
	</g>
	<g>
		<path class="st0" d="M11,30.7c0.2,0,0.3-0.1,0.3-0.2c0-0.1,0-0.1,0-0.2c0-0.2-0.1-0.4-0.2-0.5c-0.2-0.1-0.4-0.1-0.7-0.1
			c-0.3,0-0.6,0.1-0.7,0.3c-0.1,0.1-0.1,0.2-0.2,0.4H8.9c0-0.5,0.2-0.8,0.5-1c0.3-0.2,0.7-0.3,1.1-0.3c0.5,0,0.8,0.1,1.1,0.3
			c0.3,0.2,0.4,0.4,0.4,0.8v2.2c0,0.1,0,0.1,0,0.2c0,0,0.1,0.1,0.2,0.1c0,0,0.1,0,0.1,0c0,0,0.1,0,0.1,0V33c-0.1,0-0.2,0-0.2,0.1
			c-0.1,0-0.1,0-0.2,0c-0.2,0-0.4-0.1-0.5-0.2c-0.1-0.1-0.1-0.2-0.1-0.4c-0.1,0.2-0.3,0.3-0.6,0.4c-0.3,0.1-0.5,0.2-0.8,0.2
			c-0.4,0-0.7-0.1-0.9-0.3c-0.2-0.2-0.3-0.5-0.3-0.8c0-0.4,0.1-0.6,0.3-0.8s0.5-0.3,0.9-0.4L11,30.7z M9.6,32.4
			c0.1,0.1,0.3,0.2,0.5,0.2c0.2,0,0.5-0.1,0.7-0.2c0.4-0.2,0.6-0.5,0.6-0.8v-0.5c-0.1,0.1-0.2,0.1-0.3,0.1c-0.1,0-0.3,0.1-0.4,0.1
			l-0.4,0c-0.2,0-0.4,0.1-0.5,0.1c-0.2,0.1-0.3,0.3-0.3,0.5C9.4,32.2,9.5,32.3,9.6,32.4z"/>
		<path class="st0" d="M13.1,29.2h0.7v0.5c0.1-0.2,0.3-0.3,0.4-0.4c0.2-0.1,0.5-0.2,0.8-0.2c0.4,0,0.8,0.2,1.1,0.5
			c0.3,0.3,0.5,0.8,0.5,1.4c0,0.8-0.2,1.4-0.7,1.8c-0.3,0.2-0.6,0.3-1,0.3c-0.3,0-0.5-0.1-0.8-0.2c-0.1-0.1-0.2-0.2-0.4-0.4v1.9
			h-0.7V29.2z M15.6,32.2c0.2-0.3,0.3-0.6,0.3-1.1c0-0.3,0-0.6-0.1-0.8c-0.2-0.4-0.5-0.6-0.9-0.6c-0.5,0-0.8,0.2-0.9,0.7
			c-0.1,0.2-0.1,0.5-0.1,0.9c0,0.3,0,0.5,0.1,0.8c0.2,0.4,0.5,0.6,0.9,0.6C15.1,32.6,15.3,32.4,15.6,32.2z"/>
		<path class="st0" d="M20.2,29.6c0.3,0.3,0.5,0.8,0.5,1.4c0,0.6-0.2,1.1-0.5,1.5c-0.3,0.4-0.8,0.6-1.4,0.6c-0.5,0-1-0.2-1.3-0.5
			c-0.3-0.4-0.5-0.8-0.5-1.4c0-0.6,0.2-1.1,0.5-1.5c0.3-0.4,0.8-0.6,1.3-0.6C19.4,29.1,19.8,29.2,20.2,29.6z M19.8,32.1
			c0.2-0.3,0.2-0.7,0.2-1.1c0-0.4-0.1-0.6-0.2-0.9c-0.2-0.4-0.5-0.5-1-0.5c-0.4,0-0.7,0.1-0.9,0.4c-0.2,0.3-0.3,0.7-0.3,1.1
			c0,0.4,0.1,0.7,0.3,1c0.2,0.3,0.5,0.4,0.9,0.4C19.3,32.6,19.6,32.4,19.8,32.1z"/>
		<path class="st0" d="M24,29.2h0.7c-0.1,0.2-0.3,0.8-0.6,1.7c-0.2,0.7-0.4,1.2-0.6,1.6c-0.4,1-0.7,1.6-0.8,1.8
			c-0.2,0.2-0.4,0.3-0.8,0.3c-0.1,0-0.2,0-0.2,0c-0.1,0-0.1,0-0.2,0v-0.6c0.1,0,0.2,0.1,0.3,0.1c0.1,0,0.1,0,0.1,0
			c0.1,0,0.2,0,0.3-0.1c0.1,0,0.1-0.1,0.1-0.1c0,0,0.1-0.1,0.1-0.3c0.1-0.2,0.1-0.3,0.2-0.4l-1.5-3.9h0.8l1.1,3.1L24,29.2z"/>
		<path class="st0" d="M28.2,29.6c0.4,0.3,0.5,0.8,0.5,1.4c0,0.6-0.2,1.1-0.5,1.5c-0.3,0.4-0.8,0.6-1.4,0.6c-0.5,0-1-0.2-1.3-0.5
			c-0.3-0.4-0.5-0.8-0.5-1.4c0-0.6,0.2-1.1,0.5-1.5c0.3-0.4,0.8-0.6,1.3-0.6C27.4,29.1,27.8,29.2,28.2,29.6z M27.7,32.1
			c0.2-0.3,0.2-0.7,0.2-1.1c0-0.4-0.1-0.6-0.2-0.9c-0.2-0.4-0.5-0.5-1-0.5c-0.4,0-0.7,0.1-0.9,0.4c-0.2,0.3-0.3,0.7-0.3,1.1
			c0,0.4,0.1,0.7,0.3,1c0.2,0.3,0.5,0.4,0.9,0.4C27.3,32.6,27.6,32.4,27.7,32.1z"/>
		<path class="st0" d="M33.8,29.3c0.1,0.1,0.3,0.2,0.4,0.4v-1.9h0.6V33h-0.6v-0.5c-0.2,0.2-0.3,0.4-0.5,0.5
			c-0.2,0.1-0.5,0.2-0.7,0.2c-0.4,0-0.8-0.2-1.1-0.5s-0.5-0.8-0.5-1.4c0-0.6,0.1-1,0.4-1.4c0.3-0.4,0.7-0.6,1.3-0.6
			C33.3,29.1,33.6,29.2,33.8,29.3z M32.3,32.2c0.2,0.3,0.5,0.4,0.9,0.4c0.3,0,0.6-0.1,0.8-0.4c0.2-0.3,0.3-0.6,0.3-1.1
			c0-0.5-0.1-0.8-0.3-1.1c-0.2-0.2-0.5-0.3-0.8-0.3c-0.3,0-0.6,0.1-0.8,0.4c-0.2,0.2-0.3,0.6-0.3,1.1C32,31.5,32.1,31.9,32.3,32.2z"
			/>
		<path class="st0" d="M38.2,29.3c0.3,0.1,0.5,0.3,0.6,0.5c0.1,0.2,0.2,0.4,0.3,0.7c0,0.2,0.1,0.5,0.1,0.8h-2.9
			c0,0.4,0.1,0.7,0.3,0.9c0.2,0.2,0.4,0.4,0.8,0.4c0.3,0,0.6-0.1,0.8-0.3c0.1-0.1,0.2-0.3,0.2-0.4h0.7c0,0.1-0.1,0.3-0.2,0.5
			c-0.1,0.2-0.2,0.3-0.3,0.4c-0.2,0.2-0.4,0.3-0.7,0.4c-0.2,0-0.3,0.1-0.5,0.1c-0.5,0-0.9-0.2-1.2-0.5c-0.3-0.3-0.5-0.8-0.5-1.4
			c0-0.6,0.2-1.1,0.5-1.5c0.3-0.4,0.8-0.6,1.3-0.6C37.7,29.1,38,29.2,38.2,29.3z M38.5,30.8c0-0.3-0.1-0.5-0.2-0.7
			c-0.2-0.3-0.5-0.5-0.9-0.5c-0.3,0-0.6,0.1-0.8,0.3c-0.2,0.2-0.3,0.5-0.3,0.8H38.5z"/>
		<path class="st0" d="M40.3,29.2h0.8V30h-0.8V29.2z M40.3,32.2h0.8V33h-0.8V32.2z"/>
	</g>
</g>
</svg>
