<?xml version="1.0" encoding="utf-8"?>
<!-- Generator: Adobe Illustrator 26.1.0, SVG Export Plug-In . SVG Version: 6.00 Build 0)  -->
<svg version="1.1" id="Capa_1" xmlns="http://www.w3.org/2000/svg" xmlns:xlink="http://www.w3.org/1999/xlink" x="0px" y="0px"
	 viewBox="0 0 997.4 326.5" style="enable-background:new 0 0 997.4 326.5;" xml:space="preserve">
<style type="text/css">
	.st0{fill:#FFFFFF;}
</style>
<g>
	<polygon class="st0" points="264.3,286.5 214.4,115.7 295,115.7 309.5,206 324,115.7 404.6,115.7 354.6,286.5 	"/>
	<path class="st0" d="M451.3,35.1h16.1c16.9,0,30.6,13.7,30.6,30.6c0,16.9-13.7,30.6-30.6,30.6h-16.1c-16.9,0-30.6-13.7-30.6-30.6
		C420.7,48.8,434.4,35.1,451.3,35.1"/>
	<path class="st0" d="M923.6,224.5h16.1c16.9,0,30.6,13.7,30.6,30.6c0,16.9-13.7,30.6-30.6,30.6h-16.1c-16.9,0-30.6-13.7-30.6-30.6
		C893,238.3,906.7,224.5,923.6,224.5"/>
	<rect x="420.7" y="115.7" class="st0" width="77.4" height="170.9"/>
	<path class="st0" d="M598,291.4c-53.2,0-80.6-30.6-80.6-30.6l24.2-38.7c0,0,16.1,16.1,40.3,16.1c4.8,0,8.1-3.2,8.1-6.5
		c0-9.7-62.9-12.9-62.9-64.5c0-30.6,25.8-56.4,75.8-56.4c43.5,0,70.9,27.4,70.9,27.4l-24.2,38.7c0,0-12.9-12.9-30.6-12.9
		c-4.8,0-8.1,3.2-8.1,6.4c0,9.7,62.9,12.9,62.9,64.5C673.8,265.6,648,291.4,598,291.4"/>
	<path class="st0" d="M789.8,212.4c-17.7,0-25.8,8.1-25.8,17.7c0,4.8,4.8,9.7,9.7,9.7C781.8,239.8,789.8,231.7,789.8,212.4
		 M867.2,201.1v85.4h-74.1l-6.4-19.3c0,0-12.9,24.2-41.9,24.2c-35.5,0-58-22.6-58-53.2c0-30.6,22.6-53.2,77.4-53.2h25.8
		c0,0-3.2-17.7-29-17.7c-16.1,0-29,12.9-29,12.9l-27.4-43.5c0,0,24.2-25.8,67.7-25.8C826.9,110.9,867.2,151.2,867.2,201.1"/>
	<path class="st0" d="M130.1,212.4c-17.7,0-25.8,8.1-25.8,17.7c0,4.8,4.8,9.7,9.7,9.7C122.1,239.8,130.1,231.7,130.1,212.4
		 M207.5,201.1v85.4h-74.1l-6.4-19.3c0,0-12.9,24.2-41.9,24.2c-35.5,0-58-22.6-58-53.2c0-30.6,22.6-53.2,77.4-53.2h25.8
		c0,0-3.2-17.7-29-17.7c-16.1,0-29,12.9-29,12.9l-27.4-43.5c0,0,24.2-25.8,67.7-25.8C167.2,110.9,207.5,151.2,207.5,201.1"/>
</g>
</svg>
